<mxfile host="app.diagrams.net" agent="Mozilla/5.0 (Windows NT 10.0; Win64; x64) AppleWebKit/537.36 (KHTML, like Gecko) Chrome/128.0.0.0 Safari/537.36" version="24.7.12">
  <diagram name="Página-1" id="hDKtUI5WlWytIm7p95TY">
    <mxGraphModel dx="2876" dy="2272" grid="1" gridSize="10" guides="1" tooltips="1" connect="1" arrows="1" fold="1" page="1" pageScale="1" pageWidth="827" pageHeight="1169" math="0" shadow="0">
      <root>
        <mxCell id="0" />
        <mxCell id="1" parent="0" />
        <mxCell id="4bMZgN3ef7Tt8uAaqJA--1" value="Flujo del login" style="shape=table;childLayout=tableLayout;startSize=40;collapsible=0;recursiveResize=0;expand=0;fontSize=16;labelBackgroundColor=none;fillColor=#fff2cc;strokeColor=#d6b656;" vertex="1" parent="1">
          <mxGeometry x="-790" y="-1160" width="1560" height="2310" as="geometry" />
        </mxCell>
        <mxCell id="4bMZgN3ef7Tt8uAaqJA--2" value="" style="shape=tableRow;horizontal=0;swimlaneHead=0;swimlaneBody=0;top=0;left=0;strokeColor=#788AA3;bottom=0;right=0;dropTarget=0;fontStyle=0;fillColor=none;points=[[0,0.5],[1,0.5]];portConstraint=eastwest;startSize=40;collapsible=0;recursiveResize=0;expand=0;fontSize=16;labelBackgroundColor=none;fontColor=#46495D;" vertex="1" parent="4bMZgN3ef7Tt8uAaqJA--1">
          <mxGeometry y="40" width="1560" height="756" as="geometry" />
        </mxCell>
        <mxCell id="4bMZgN3ef7Tt8uAaqJA--3" value="MicroFrontend" style="swimlane;swimlaneHead=0;swimlaneBody=0;fontStyle=0;strokeColor=#788AA3;connectable=0;fillColor=none;startSize=30;collapsible=0;recursiveResize=0;expand=0;fontSize=16;labelBackgroundColor=none;fontColor=#46495D;" vertex="1" parent="4bMZgN3ef7Tt8uAaqJA--2">
          <mxGeometry x="40" width="507" height="756" as="geometry">
            <mxRectangle width="507" height="756" as="alternateBounds" />
          </mxGeometry>
        </mxCell>
        <mxCell id="4bMZgN3ef7Tt8uAaqJA--15" style="edgeStyle=orthogonalEdgeStyle;rounded=0;orthogonalLoop=1;jettySize=auto;html=1;exitX=0.5;exitY=1;exitDx=0;exitDy=0;labelBackgroundColor=none;strokeColor=#A50040;fontColor=default;fillColor=#d80073;" edge="1" parent="4bMZgN3ef7Tt8uAaqJA--3" source="4bMZgN3ef7Tt8uAaqJA--14">
          <mxGeometry relative="1" as="geometry">
            <mxPoint x="165.42857142857156" y="230" as="targetPoint" />
          </mxGeometry>
        </mxCell>
        <mxCell id="4bMZgN3ef7Tt8uAaqJA--14" value="&lt;font style=&quot;font-size: 18px;&quot;&gt;Inicio&lt;/font&gt;" style="ellipse;whiteSpace=wrap;html=1;labelBackgroundColor=none;fillColor=#B2C9AB;strokeColor=#788AA3;fontColor=#46495D;" vertex="1" parent="4bMZgN3ef7Tt8uAaqJA--3">
          <mxGeometry x="106" y="60" width="120" height="80" as="geometry" />
        </mxCell>
        <mxCell id="4bMZgN3ef7Tt8uAaqJA--16" value="&lt;font size=&quot;3&quot;&gt;Usuario ingresa al Login&lt;/font&gt;" style="rounded=1;whiteSpace=wrap;html=1;strokeColor=#788AA3;fontColor=#46495D;fillColor=#B2C9AB;" vertex="1" parent="4bMZgN3ef7Tt8uAaqJA--3">
          <mxGeometry x="66" y="229" width="204" height="80" as="geometry" />
        </mxCell>
        <mxCell id="4bMZgN3ef7Tt8uAaqJA--79" value="&lt;font size=&quot;3&quot;&gt;Usuario/Contraseña erroneo.&lt;/font&gt;" style="whiteSpace=wrap;html=1;fillColor=#B2C9AB;strokeColor=#788AA3;fontColor=#46495D;" vertex="1" parent="4bMZgN3ef7Tt8uAaqJA--3">
          <mxGeometry x="-20" y="536" width="160" height="70" as="geometry" />
        </mxCell>
        <mxCell id="4bMZgN3ef7Tt8uAaqJA--4" value="Microservicio" style="swimlane;swimlaneHead=0;swimlaneBody=0;fontStyle=0;strokeColor=#788AA3;connectable=0;fillColor=none;startSize=30;collapsible=0;recursiveResize=0;expand=0;fontSize=16;labelBackgroundColor=none;fontColor=#46495D;" vertex="1" parent="4bMZgN3ef7Tt8uAaqJA--2">
          <mxGeometry x="547" width="506" height="756" as="geometry">
            <mxRectangle width="506" height="756" as="alternateBounds" />
          </mxGeometry>
        </mxCell>
        <mxCell id="4bMZgN3ef7Tt8uAaqJA--51" value="&lt;font size=&quot;3&quot;&gt;Obtiene la informacion mandada por el usuario y la manda a la DB&lt;/font&gt;" style="whiteSpace=wrap;html=1;fillColor=#B2C9AB;strokeColor=#788AA3;fontColor=#46495D;rounded=1;" vertex="1" parent="4bMZgN3ef7Tt8uAaqJA--4">
          <mxGeometry x="73" y="90" width="267" height="90" as="geometry" />
        </mxCell>
        <mxCell id="4bMZgN3ef7Tt8uAaqJA--77" value="&lt;font size=&quot;3&quot;&gt;El usuario existe?&lt;/font&gt;" style="rhombus;whiteSpace=wrap;html=1;strokeColor=#788AA3;fontColor=#46495D;fillColor=#B2C9AB;" vertex="1" parent="4bMZgN3ef7Tt8uAaqJA--4">
          <mxGeometry x="140" y="430" width="173" height="120" as="geometry" />
        </mxCell>
        <mxCell id="4bMZgN3ef7Tt8uAaqJA--81" value="Si" style="text;strokeColor=none;fillColor=none;html=1;fontSize=24;fontStyle=1;verticalAlign=middle;align=center;fontColor=#46495D;" vertex="1" parent="4bMZgN3ef7Tt8uAaqJA--4">
          <mxGeometry y="460" width="100" height="40" as="geometry" />
        </mxCell>
        <mxCell id="4bMZgN3ef7Tt8uAaqJA--82" value="" style="edgeStyle=orthogonalEdgeStyle;rounded=0;orthogonalLoop=1;jettySize=auto;html=1;strokeColor=#C73500;fontColor=#46495D;fillColor=#fa6800;" edge="1" parent="4bMZgN3ef7Tt8uAaqJA--4" source="4bMZgN3ef7Tt8uAaqJA--77" target="4bMZgN3ef7Tt8uAaqJA--81">
          <mxGeometry relative="1" as="geometry">
            <mxPoint x="-103" y="-170" as="sourcePoint" />
            <mxPoint x="-570" y="-89" as="targetPoint" />
          </mxGeometry>
        </mxCell>
        <mxCell id="4bMZgN3ef7Tt8uAaqJA--5" value="DB" style="swimlane;swimlaneHead=0;swimlaneBody=0;fontStyle=0;strokeColor=#788AA3;connectable=0;fillColor=none;startSize=30;collapsible=0;recursiveResize=0;expand=0;fontSize=16;labelBackgroundColor=none;fontColor=#46495D;" vertex="1" parent="4bMZgN3ef7Tt8uAaqJA--2">
          <mxGeometry x="1053" width="507" height="756" as="geometry">
            <mxRectangle width="507" height="756" as="alternateBounds" />
          </mxGeometry>
        </mxCell>
        <mxCell id="4bMZgN3ef7Tt8uAaqJA--56" value="" style="edgeStyle=orthogonalEdgeStyle;rounded=0;orthogonalLoop=1;jettySize=auto;html=1;strokeColor=#A50040;fontColor=#46495D;fillColor=#d80073;" edge="1" parent="4bMZgN3ef7Tt8uAaqJA--5" source="4bMZgN3ef7Tt8uAaqJA--53" target="4bMZgN3ef7Tt8uAaqJA--55">
          <mxGeometry relative="1" as="geometry" />
        </mxCell>
        <mxCell id="4bMZgN3ef7Tt8uAaqJA--53" value="&lt;font size=&quot;3&quot;&gt;Valida la informacion recibida del ms&lt;/font&gt;" style="whiteSpace=wrap;html=1;fillColor=#B2C9AB;strokeColor=#788AA3;fontColor=#46495D;rounded=1;" vertex="1" parent="4bMZgN3ef7Tt8uAaqJA--5">
          <mxGeometry x="77" y="80" width="273" height="100" as="geometry" />
        </mxCell>
        <mxCell id="4bMZgN3ef7Tt8uAaqJA--55" value="&lt;font size=&quot;3&quot;&gt;La informacion existe/es correcta?&lt;/font&gt;" style="rhombus;whiteSpace=wrap;html=1;fillColor=#B2C9AB;strokeColor=#788AA3;fontColor=#46495D;rounded=1;" vertex="1" parent="4bMZgN3ef7Tt8uAaqJA--5">
          <mxGeometry x="140.25" y="270" width="239.75" height="140" as="geometry" />
        </mxCell>
        <mxCell id="4bMZgN3ef7Tt8uAaqJA--69" value="No" style="text;strokeColor=none;fillColor=none;html=1;fontSize=24;fontStyle=1;verticalAlign=middle;align=center;fontColor=#46495D;" vertex="1" parent="4bMZgN3ef7Tt8uAaqJA--5">
          <mxGeometry x="-33" y="310" width="100" height="40" as="geometry" />
        </mxCell>
        <mxCell id="4bMZgN3ef7Tt8uAaqJA--70" value="" style="edgeStyle=orthogonalEdgeStyle;rounded=0;orthogonalLoop=1;jettySize=auto;html=1;strokeColor=#C73500;fontColor=#46495D;fillColor=#fa6800;" edge="1" parent="4bMZgN3ef7Tt8uAaqJA--5" source="4bMZgN3ef7Tt8uAaqJA--55" target="4bMZgN3ef7Tt8uAaqJA--69">
          <mxGeometry relative="1" as="geometry">
            <mxPoint x="403" y="-770" as="sourcePoint" />
            <mxPoint x="120" y="-680" as="targetPoint" />
          </mxGeometry>
        </mxCell>
        <mxCell id="4bMZgN3ef7Tt8uAaqJA--71" value="" style="edgeStyle=orthogonalEdgeStyle;rounded=0;orthogonalLoop=1;jettySize=auto;html=1;strokeColor=#A50040;fontColor=#46495D;fillColor=#d80073;" edge="1" parent="4bMZgN3ef7Tt8uAaqJA--5" source="4bMZgN3ef7Tt8uAaqJA--55" target="4bMZgN3ef7Tt8uAaqJA--59">
          <mxGeometry relative="1" as="geometry">
            <mxPoint x="523" y="-710" as="sourcePoint" />
            <mxPoint x="477" y="-317" as="targetPoint" />
          </mxGeometry>
        </mxCell>
        <mxCell id="4bMZgN3ef7Tt8uAaqJA--59" value="Si" style="text;strokeColor=none;fillColor=none;html=1;fontSize=24;fontStyle=1;verticalAlign=middle;align=center;fontColor=#46495D;" vertex="1" parent="4bMZgN3ef7Tt8uAaqJA--5">
          <mxGeometry x="210.13" y="460" width="100" height="40" as="geometry" />
        </mxCell>
        <mxCell id="4bMZgN3ef7Tt8uAaqJA--67" value="&lt;font size=&quot;3&quot;&gt;Regresa info de usuario inexistente/erroneo&lt;/font&gt;" style="whiteSpace=wrap;html=1;fillColor=#B2C9AB;strokeColor=#788AA3;fontColor=#46495D;rounded=1;" vertex="1" parent="4bMZgN3ef7Tt8uAaqJA--5">
          <mxGeometry x="17" y="490" width="213" height="60" as="geometry" />
        </mxCell>
        <mxCell id="4bMZgN3ef7Tt8uAaqJA--68" value="" style="edgeStyle=orthogonalEdgeStyle;rounded=0;orthogonalLoop=1;jettySize=auto;html=1;strokeColor=#C73500;fontColor=#46495D;fillColor=#fa6800;" edge="1" parent="4bMZgN3ef7Tt8uAaqJA--5" source="4bMZgN3ef7Tt8uAaqJA--69" target="4bMZgN3ef7Tt8uAaqJA--67">
          <mxGeometry relative="1" as="geometry" />
        </mxCell>
        <mxCell id="4bMZgN3ef7Tt8uAaqJA--54" value="" style="edgeStyle=orthogonalEdgeStyle;rounded=0;orthogonalLoop=1;jettySize=auto;html=1;strokeColor=#A50040;fontColor=#46495D;fillColor=#d80073;" edge="1" parent="4bMZgN3ef7Tt8uAaqJA--2" source="4bMZgN3ef7Tt8uAaqJA--51" target="4bMZgN3ef7Tt8uAaqJA--53">
          <mxGeometry relative="1" as="geometry" />
        </mxCell>
        <mxCell id="4bMZgN3ef7Tt8uAaqJA--75" value="" style="edgeStyle=orthogonalEdgeStyle;rounded=0;orthogonalLoop=1;jettySize=auto;html=1;strokeColor=#C73500;fontColor=#46495D;fillColor=#fa6800;entryX=1;entryY=0.5;entryDx=0;entryDy=0;" edge="1" parent="4bMZgN3ef7Tt8uAaqJA--2" source="4bMZgN3ef7Tt8uAaqJA--67" target="4bMZgN3ef7Tt8uAaqJA--77">
          <mxGeometry relative="1" as="geometry">
            <mxPoint x="887" y="522" as="targetPoint" />
          </mxGeometry>
        </mxCell>
        <mxCell id="4bMZgN3ef7Tt8uAaqJA--80" value="" style="edgeStyle=orthogonalEdgeStyle;rounded=0;orthogonalLoop=1;jettySize=auto;html=1;strokeColor=#C73500;fontColor=#46495D;fillColor=#fa6800;" edge="1" parent="4bMZgN3ef7Tt8uAaqJA--2" source="4bMZgN3ef7Tt8uAaqJA--81" target="4bMZgN3ef7Tt8uAaqJA--79">
          <mxGeometry relative="1" as="geometry" />
        </mxCell>
        <mxCell id="4bMZgN3ef7Tt8uAaqJA--6" value="" style="shape=tableRow;horizontal=0;swimlaneHead=0;swimlaneBody=0;top=0;left=0;strokeColor=#788AA3;bottom=0;right=0;dropTarget=0;fontStyle=0;fillColor=none;points=[[0,0.5],[1,0.5]];portConstraint=eastwest;startSize=40;collapsible=0;recursiveResize=0;expand=0;fontSize=16;labelBackgroundColor=none;fontColor=#46495D;" vertex="1" parent="4bMZgN3ef7Tt8uAaqJA--1">
          <mxGeometry y="796" width="1560" height="758" as="geometry" />
        </mxCell>
        <mxCell id="4bMZgN3ef7Tt8uAaqJA--7" value="" style="swimlane;swimlaneHead=0;swimlaneBody=0;fontStyle=0;connectable=0;strokeColor=#788AA3;fillColor=none;startSize=0;collapsible=0;recursiveResize=0;expand=0;fontSize=16;labelBackgroundColor=none;fontColor=#46495D;" vertex="1" parent="4bMZgN3ef7Tt8uAaqJA--6">
          <mxGeometry x="40" width="507" height="758" as="geometry">
            <mxRectangle width="507" height="758" as="alternateBounds" />
          </mxGeometry>
        </mxCell>
        <mxCell id="4bMZgN3ef7Tt8uAaqJA--32" value="&lt;font size=&quot;3&quot;&gt;El usuario tiene cuenta?&lt;/font&gt;" style="rhombus;whiteSpace=wrap;html=1;fillColor=#B2C9AB;strokeColor=#788AA3;fontColor=#46495D;rounded=1;" vertex="1" parent="4bMZgN3ef7Tt8uAaqJA--7">
          <mxGeometry x="170" y="-43" width="183.5" height="161" as="geometry" />
        </mxCell>
        <mxCell id="4bMZgN3ef7Tt8uAaqJA--34" value="&lt;font size=&quot;3&quot;&gt;Ingresa las credenciales&lt;/font&gt;" style="whiteSpace=wrap;html=1;fillColor=#B2C9AB;strokeColor=#788AA3;fontColor=#46495D;rounded=1;" vertex="1" parent="4bMZgN3ef7Tt8uAaqJA--7">
          <mxGeometry x="337" y="244" width="200.5" height="93.5" as="geometry" />
        </mxCell>
        <mxCell id="4bMZgN3ef7Tt8uAaqJA--35" value="" style="edgeStyle=orthogonalEdgeStyle;rounded=0;orthogonalLoop=1;jettySize=auto;html=1;strokeColor=#A50040;fontColor=#46495D;fillColor=#d80073;" edge="1" parent="4bMZgN3ef7Tt8uAaqJA--7" source="4bMZgN3ef7Tt8uAaqJA--36" target="4bMZgN3ef7Tt8uAaqJA--34">
          <mxGeometry relative="1" as="geometry" />
        </mxCell>
        <mxCell id="4bMZgN3ef7Tt8uAaqJA--85" style="edgeStyle=orthogonalEdgeStyle;rounded=0;orthogonalLoop=1;jettySize=auto;html=1;exitX=1;exitY=0.5;exitDx=0;exitDy=0;entryX=0.5;entryY=1;entryDx=0;entryDy=0;strokeColor=#82b366;fontColor=#46495D;fillColor=#d5e8d4;gradientColor=#97d077;" edge="1" parent="4bMZgN3ef7Tt8uAaqJA--7" source="4bMZgN3ef7Tt8uAaqJA--39" target="4bMZgN3ef7Tt8uAaqJA--34">
          <mxGeometry relative="1" as="geometry" />
        </mxCell>
        <mxCell id="4bMZgN3ef7Tt8uAaqJA--39" value="&lt;font size=&quot;3&quot;&gt;Crea una cuenta&lt;/font&gt;" style="whiteSpace=wrap;html=1;fillColor=#B2C9AB;strokeColor=#788AA3;fontColor=#46495D;rounded=1;" vertex="1" parent="4bMZgN3ef7Tt8uAaqJA--7">
          <mxGeometry x="70" y="584" width="190" height="93" as="geometry" />
        </mxCell>
        <mxCell id="4bMZgN3ef7Tt8uAaqJA--40" value="" style="edgeStyle=orthogonalEdgeStyle;rounded=0;orthogonalLoop=1;jettySize=auto;html=1;strokeColor=#82b366;fontColor=#46495D;fillColor=#d5e8d4;gradientColor=#97d077;" edge="1" parent="4bMZgN3ef7Tt8uAaqJA--7" source="4bMZgN3ef7Tt8uAaqJA--49" target="4bMZgN3ef7Tt8uAaqJA--39">
          <mxGeometry relative="1" as="geometry" />
        </mxCell>
        <mxCell id="4bMZgN3ef7Tt8uAaqJA--72" value="" style="edgeStyle=orthogonalEdgeStyle;rounded=0;orthogonalLoop=1;jettySize=auto;html=1;strokeColor=#A50040;fontColor=#46495D;fillColor=#d80073;" edge="1" parent="4bMZgN3ef7Tt8uAaqJA--7" source="4bMZgN3ef7Tt8uAaqJA--32" target="4bMZgN3ef7Tt8uAaqJA--36">
          <mxGeometry relative="1" as="geometry">
            <mxPoint x="-488" y="-246" as="sourcePoint" />
            <mxPoint x="-313" y="-170" as="targetPoint" />
          </mxGeometry>
        </mxCell>
        <mxCell id="4bMZgN3ef7Tt8uAaqJA--36" value="Si" style="text;strokeColor=none;fillColor=none;html=1;fontSize=24;fontStyle=1;verticalAlign=middle;align=center;fontColor=#46495D;" vertex="1" parent="4bMZgN3ef7Tt8uAaqJA--7">
          <mxGeometry x="287" y="154" width="100" height="40" as="geometry" />
        </mxCell>
        <mxCell id="4bMZgN3ef7Tt8uAaqJA--73" value="" style="edgeStyle=orthogonalEdgeStyle;rounded=0;orthogonalLoop=1;jettySize=auto;html=1;strokeColor=#82b366;fontColor=#46495D;fillColor=#d5e8d4;gradientColor=#97d077;" edge="1" parent="4bMZgN3ef7Tt8uAaqJA--7" source="4bMZgN3ef7Tt8uAaqJA--32" target="4bMZgN3ef7Tt8uAaqJA--49">
          <mxGeometry relative="1" as="geometry">
            <mxPoint x="-488" y="-246" as="sourcePoint" />
            <mxPoint x="-610" y="80" as="targetPoint" />
          </mxGeometry>
        </mxCell>
        <mxCell id="4bMZgN3ef7Tt8uAaqJA--49" value="No" style="text;strokeColor=none;fillColor=none;html=1;fontSize=24;fontStyle=1;verticalAlign=middle;align=center;fontColor=#46495D;" vertex="1" parent="4bMZgN3ef7Tt8uAaqJA--7">
          <mxGeometry x="211.75" y="204" width="100" height="40" as="geometry" />
        </mxCell>
        <mxCell id="4bMZgN3ef7Tt8uAaqJA--8" value="" style="swimlane;swimlaneHead=0;swimlaneBody=0;fontStyle=0;connectable=0;strokeColor=#788AA3;fillColor=none;startSize=0;collapsible=0;recursiveResize=0;expand=0;fontSize=16;labelBackgroundColor=none;fontColor=#46495D;" vertex="1" parent="4bMZgN3ef7Tt8uAaqJA--6">
          <mxGeometry x="547" width="506" height="758" as="geometry">
            <mxRectangle width="506" height="758" as="alternateBounds" />
          </mxGeometry>
        </mxCell>
        <mxCell id="4bMZgN3ef7Tt8uAaqJA--9" value="" style="swimlane;swimlaneHead=0;swimlaneBody=0;fontStyle=0;connectable=0;strokeColor=#788AA3;fillColor=none;startSize=0;collapsible=0;recursiveResize=0;expand=0;fontSize=16;labelBackgroundColor=none;fontColor=#46495D;" vertex="1" parent="4bMZgN3ef7Tt8uAaqJA--6">
          <mxGeometry x="1053" width="507" height="758" as="geometry">
            <mxRectangle width="507" height="758" as="alternateBounds" />
          </mxGeometry>
        </mxCell>
        <mxCell id="4bMZgN3ef7Tt8uAaqJA--57" value="&lt;font size=&quot;3&quot;&gt;Regresa la informacion del usuario&lt;/font&gt;" style="whiteSpace=wrap;html=1;fillColor=#B2C9AB;strokeColor=#788AA3;fontColor=#46495D;rounded=1;" vertex="1" parent="4bMZgN3ef7Tt8uAaqJA--9">
          <mxGeometry x="130.25" y="47" width="166.5" height="95" as="geometry" />
        </mxCell>
        <mxCell id="4bMZgN3ef7Tt8uAaqJA--10" value="" style="shape=tableRow;horizontal=0;swimlaneHead=0;swimlaneBody=0;top=0;left=0;strokeColor=#788AA3;bottom=0;right=0;dropTarget=0;fontStyle=0;fillColor=none;points=[[0,0.5],[1,0.5]];portConstraint=eastwest;startSize=40;collapsible=0;recursiveResize=0;expand=0;fontSize=16;labelBackgroundColor=none;fontColor=#46495D;" vertex="1" parent="4bMZgN3ef7Tt8uAaqJA--1">
          <mxGeometry y="1554" width="1560" height="756" as="geometry" />
        </mxCell>
        <mxCell id="4bMZgN3ef7Tt8uAaqJA--11" value="" style="swimlane;swimlaneHead=0;swimlaneBody=0;fontStyle=0;connectable=0;strokeColor=#788AA3;fillColor=none;startSize=0;collapsible=0;recursiveResize=0;expand=0;fontSize=16;labelBackgroundColor=none;fontColor=#46495D;" vertex="1" parent="4bMZgN3ef7Tt8uAaqJA--10">
          <mxGeometry x="40" width="507" height="756" as="geometry">
            <mxRectangle width="507" height="756" as="alternateBounds" />
          </mxGeometry>
        </mxCell>
        <mxCell id="4bMZgN3ef7Tt8uAaqJA--65" value="" style="edgeStyle=orthogonalEdgeStyle;rounded=0;orthogonalLoop=1;jettySize=auto;html=1;strokeColor=#A50040;fontColor=#46495D;fillColor=#d80073;" edge="1" parent="4bMZgN3ef7Tt8uAaqJA--11" source="4bMZgN3ef7Tt8uAaqJA--62" target="4bMZgN3ef7Tt8uAaqJA--64">
          <mxGeometry relative="1" as="geometry" />
        </mxCell>
        <mxCell id="4bMZgN3ef7Tt8uAaqJA--62" value="&lt;font style=&quot;font-size: 18px;&quot;&gt;Al ser correcto, entra a la ventana principal&lt;/font&gt;" style="whiteSpace=wrap;html=1;fillColor=#B2C9AB;strokeColor=#788AA3;fontColor=#46495D;rounded=1;" vertex="1" parent="4bMZgN3ef7Tt8uAaqJA--11">
          <mxGeometry x="67" y="86" width="270" height="94" as="geometry" />
        </mxCell>
        <mxCell id="4bMZgN3ef7Tt8uAaqJA--64" value="&lt;font size=&quot;3&quot;&gt;Fin&lt;/font&gt;" style="ellipse;whiteSpace=wrap;html=1;fillColor=#B2C9AB;strokeColor=#788AA3;fontColor=#46495D;rounded=1;" vertex="1" parent="4bMZgN3ef7Tt8uAaqJA--11">
          <mxGeometry x="122.5" y="526" width="165" height="113" as="geometry" />
        </mxCell>
        <mxCell id="4bMZgN3ef7Tt8uAaqJA--12" value="" style="swimlane;swimlaneHead=0;swimlaneBody=0;fontStyle=0;connectable=0;strokeColor=#788AA3;fillColor=none;startSize=0;collapsible=0;recursiveResize=0;expand=0;fontSize=16;labelBackgroundColor=none;fontColor=#46495D;" vertex="1" parent="4bMZgN3ef7Tt8uAaqJA--10">
          <mxGeometry x="547" width="506" height="756" as="geometry">
            <mxRectangle width="506" height="756" as="alternateBounds" />
          </mxGeometry>
        </mxCell>
        <mxCell id="4bMZgN3ef7Tt8uAaqJA--60" value="&lt;font size=&quot;3&quot;&gt;Obtiene la informacion de la DB y la manda al front&lt;/font&gt;" style="whiteSpace=wrap;html=1;fillColor=#B2C9AB;strokeColor=#788AA3;fontColor=#46495D;rounded=1;" vertex="1" parent="4bMZgN3ef7Tt8uAaqJA--12">
          <mxGeometry x="113" y="88" width="227" height="92" as="geometry" />
        </mxCell>
        <mxCell id="4bMZgN3ef7Tt8uAaqJA--13" value="" style="swimlane;swimlaneHead=0;swimlaneBody=0;fontStyle=0;connectable=0;strokeColor=#788AA3;fillColor=none;startSize=0;collapsible=0;recursiveResize=0;expand=0;fontSize=16;labelBackgroundColor=none;fontColor=#46495D;" vertex="1" parent="4bMZgN3ef7Tt8uAaqJA--10">
          <mxGeometry x="1053" width="507" height="756" as="geometry">
            <mxRectangle width="507" height="756" as="alternateBounds" />
          </mxGeometry>
        </mxCell>
        <mxCell id="4bMZgN3ef7Tt8uAaqJA--63" value="" style="edgeStyle=orthogonalEdgeStyle;rounded=0;orthogonalLoop=1;jettySize=auto;html=1;strokeColor=#A50040;fontColor=#46495D;fillColor=#d80073;" edge="1" parent="4bMZgN3ef7Tt8uAaqJA--10" source="4bMZgN3ef7Tt8uAaqJA--60" target="4bMZgN3ef7Tt8uAaqJA--62">
          <mxGeometry relative="1" as="geometry" />
        </mxCell>
        <mxCell id="4bMZgN3ef7Tt8uAaqJA--33" value="" style="edgeStyle=orthogonalEdgeStyle;rounded=0;orthogonalLoop=1;jettySize=auto;html=1;strokeColor=#A50040;fontColor=#46495D;fillColor=#d80073;" edge="1" parent="4bMZgN3ef7Tt8uAaqJA--1" source="4bMZgN3ef7Tt8uAaqJA--16" target="4bMZgN3ef7Tt8uAaqJA--32">
          <mxGeometry relative="1" as="geometry" />
        </mxCell>
        <mxCell id="4bMZgN3ef7Tt8uAaqJA--52" value="" style="edgeStyle=orthogonalEdgeStyle;rounded=0;orthogonalLoop=1;jettySize=auto;html=1;strokeColor=#A50040;fontColor=#46495D;fillColor=#d80073;" edge="1" parent="4bMZgN3ef7Tt8uAaqJA--1" source="4bMZgN3ef7Tt8uAaqJA--34" target="4bMZgN3ef7Tt8uAaqJA--51">
          <mxGeometry relative="1" as="geometry">
            <Array as="points">
              <mxPoint x="490" y="340" />
              <mxPoint x="754" y="340" />
            </Array>
          </mxGeometry>
        </mxCell>
        <mxCell id="4bMZgN3ef7Tt8uAaqJA--58" value="" style="edgeStyle=orthogonalEdgeStyle;rounded=0;orthogonalLoop=1;jettySize=auto;html=1;strokeColor=#A50040;fontColor=#46495D;fillColor=#d80073;" edge="1" parent="4bMZgN3ef7Tt8uAaqJA--1" source="4bMZgN3ef7Tt8uAaqJA--59" target="4bMZgN3ef7Tt8uAaqJA--57">
          <mxGeometry relative="1" as="geometry" />
        </mxCell>
        <mxCell id="4bMZgN3ef7Tt8uAaqJA--61" value="" style="edgeStyle=orthogonalEdgeStyle;rounded=0;orthogonalLoop=1;jettySize=auto;html=1;strokeColor=#A50040;fontColor=#46495D;fillColor=#d80073;" edge="1" parent="4bMZgN3ef7Tt8uAaqJA--1" source="4bMZgN3ef7Tt8uAaqJA--57" target="4bMZgN3ef7Tt8uAaqJA--60">
          <mxGeometry relative="1" as="geometry" />
        </mxCell>
        <mxCell id="4bMZgN3ef7Tt8uAaqJA--83" style="edgeStyle=orthogonalEdgeStyle;rounded=0;orthogonalLoop=1;jettySize=auto;html=1;exitX=0.5;exitY=1;exitDx=0;exitDy=0;entryX=0;entryY=0.5;entryDx=0;entryDy=0;strokeColor=#C73500;fontColor=#46495D;fillColor=#fa6800;" edge="1" parent="4bMZgN3ef7Tt8uAaqJA--1" source="4bMZgN3ef7Tt8uAaqJA--79" target="4bMZgN3ef7Tt8uAaqJA--34">
          <mxGeometry relative="1" as="geometry" />
        </mxCell>
      </root>
    </mxGraphModel>
  </diagram>
</mxfile>
